<svg id="Layer_1" data-name="Layer 1" xmlns="http://www.w3.org/2000/svg" viewBox="0 0 596 596">
  <defs>
    <style>
      .cls-1 {
        fill: #374df5;
      }

      .cls-2 {
        fill: #fff;
      }
    </style>
  </defs>
  <title>sofaLogo</title>
  <g>
    <path class="cls-1" d="M-.956,131.89h596v596h-596ZM303.286,282.2911q-74.0978,0-148.1954.0025c-5.3251,0-7.129,1.6678-7.13,6.68q-.0144,72.05.0029,144.0995c.0011,4.7105.2711,4.9116,5.1756,4.91q34.8147-.0108,69.6295-.0045c4.8191.0011,4.9466-.1009,4.9463-5.0388-.0015-22.341.0521-44.6823-.0825-67.0225-.0189-3.1354.8974-3.9466,3.9818-3.9429q110.2153.13,220.4311.0782c5.86,0,6.11-.2252,6.1117-6.0357q.0114-32.9531,0-65.906c-.0007-6.6446-1.1729-7.8183-7.793-7.8183Q376.8252,282.2921,303.286,282.2911Zm75.1148,230.4458h-8.12q-107.8291-.001-215.6583-.0029c-6.6678,0-6.669-.0067-6.6689,6.5092q.0006,32.5908.0024,65.1817c0,6.9461,1.0971,8.0683,7.92,8.0684q51.7729.0008,103.5458,0,95.7238.0006,191.4476,0c5.58,0,7.2716-1.3335,7.2739-6.0486q.0348-72.6311.0527-145.2619c.0043-3.43-1.28-4.4464-4.6515-4.4291q-35.3834.1814-70.7678-.0112c-3.5333-.0216-4.4829,1.1774-4.4424,4.5207.1487,12.29.0648,24.5821.0663,36.8735C378.402,489.54,378.4008,500.9434,378.4008,512.7369Z" transform="translate(0.956 -131.89)"/>
    <path class="cls-2" d="M303.286,282.2917q73.539.0009,147.0782.0007c6.62,0,7.7923,1.1737,7.793,7.8183q.0036,32.9531,0,65.906c-.002,5.81-.2517,6.0361-6.1117,6.0357q-110.2156-.0078-220.4311-.0782c-3.0844-.0037-4.0007.8075-3.9818,3.9429.1346,22.34.081,44.6815.0825,67.0225,0,4.9379-.1272,5.04-4.9463,5.0388q-34.8147-.0081-69.6295.0045c-4.9045.0015-5.1745-.2-5.1756-4.91q-.0176-72.05-.0029-144.0995c.001-5.0119,1.8049-6.6793,7.13-6.68Q229.1884,282.2873,303.286,282.2917Z" transform="translate(0.956 -131.89)"/>
    <path class="cls-2" d="M378.4008,512.7369c0-11.7935.0012-23.197,0-34.6005-.0015-12.2914.0824-24.5839-.0663-36.8735-.0405-3.3433.9091-4.5423,4.4424-4.5207q35.3831.2161,70.7678.0112c3.3715-.0173,4.6558,1,4.6515,4.4291q-.0922,72.6308-.0527,145.2619c-.0023,4.7151-1.6939,6.0484-7.2739,6.0486q-95.7237.0035-191.4476,0-51.7729,0-103.5458,0c-6.8225,0-7.92-1.1223-7.92-8.0684q0-32.5908-.0024-65.1817c0-6.5159.0011-6.51,6.6689-6.5092q107.8292.0033,215.6583.0029Z" transform="translate(0.956 -131.89)"/>
  </g>
</svg>
