<svg id="Layer_1" data-name="Layer 1" xmlns="http://www.w3.org/2000/svg" viewBox="0 0 251.4379 251.2609">
  <defs>
    <style>
      .cls-1 {
        fill: #fff;
      }
    </style>
  </defs>
  <title>sofaWhite</title>
  <path class="cls-1" d="M297.721,546.5605q-59.8188-.0012-119.6376-.0068a16.118,16.118,0,0,1-2.7441-.1561c-1.9574-.34-2.4793-.9036-2.814-2.86a9.2642,9.2642,0,0,1-.0722-1.5548q-.005-27.5394-.0025-55.0789c0-.32-.0176-.6418.01-.96.1884-2.16.8062-3.3993,3.0761-3.5023.8351-.038,1.6685-.1673,2.5027-.1675q88.4982-.0154,176.9964-.0147c3.5051,0,4.3667-.8659,4.372-4.4172q.0143-9.66.0085-19.32-.0011-14.58-.0077-29.1594c0-1.6688-.0817-3.3426.02-5.0052.1624-2.6453,1.7926-4.4149,4.4139-4.4627,6.0666-.1105,12.1364-.0411,18.2049-.0441.36,0,.72.0087,1.08.0067q16.8514-.0954,33.7029-.1816a18.2511,18.2511,0,0,1,2.9786.2339,4.6184,4.6184,0,0,1,3.892,4.8859c.0325,2.72.0083,5.44.0083,8.16q.0009,53.639-.0006,107.2778a13.4666,13.4666,0,0,1-.0669,2.1549c-.4724,2.8913-2.1276,4.1715-5.3243,4.1716Q358.0194,546.5624,297.721,546.5605Z" transform="translate(-172.2811 -295.3003)"/>
  <path class="cls-1" d="M298.0842,295.3006q59.9953,0,119.9908.01a20.1307,20.1307,0,0,1,3.0926.2439,2.4417,2.4417,0,0,1,2.2754,2.2549,19.4452,19.4452,0,0,1,.2494,2.8565q.0217,26.6382.0087,53.2764A13.2718,13.2718,0,0,1,423.65,355.5c-.3752,3.1624-1.1415,3.8813-4.3313,4.0737-.598.036-1.2.0192-1.7993.0193q-88.314.0042-176.628.0072c-.2,0-.4-.0023-.6.0009-2.6143.0413-3.5409.95-3.5417,3.5575q-.0078,26.5175-.01,53.035a12.1887,12.1887,0,0,1-.2376,2.25,4.1859,4.1859,0,0,1-3.6379,3.4919,14.4961,14.4961,0,0,1-2.8561.2473c-5.7943-.04-11.5885-.1775-17.3825-.1674-11.0737.0191-22.1473.1225-33.2211.1682a17.55,17.55,0,0,1-3.0961-.2524c-2.58-.4538-3.98-2.2537-4.0156-5.5781-.0533-5.0331.0907-10.0682.15-15.1024.0051-.44.0056-.88.0056-1.32q.0012-49.9167.0024-99.8332c0-3.9068.8755-4.793,4.8016-4.7933Q237.6683,295.2975,298.0842,295.3006Z" transform="translate(-172.2811 -295.3003)"/>
</svg>
