<svg id="Layer_1" data-name="Layer 1" xmlns="http://www.w3.org/2000/svg" viewBox="0 0 427.3165 427.2832">
  <defs>
    <style>
      .cls-1 {
        fill: #fff;
      }

      .cls-2 {
        fill: #374df5;
      }
    </style>
  </defs>
  <title>sofa</title>
  <g>
    <path class="cls-1" d="M85.4638,421.8908c0,29.1652-.2083,58.3326.0877,87.4949.1484,14.6194.47,29.3093,2.0255,43.8268,3.0515,28.4864,17.0135,50.7119,40.9876,66.5042,18.6954,12.315,40.0081,15.3872,61.56,15.53,68.3279.4522,136.6612.319,204.9909.0374a247.8244,247.8244,0,0,0,40.1988-2.9516c34.5134-5.8431,58.0523-25.6862,70.4381-58.52,5.2454-13.9049,6.5691-28.583,6.6416-43.17q.4884-98.244.0538-196.4918a406.7586,406.7586,0,0,0-2.01-43.3264c-3.4761-31.4784-19.5051-55.0519-47.2519-70.4123-17.1089-9.4713-36.0871-11.7538-55.06-11.8775-66.4947-.4334-132.9943-.2734-199.4913-.08-13.443.0391-26.9247.7414-40.3158,1.9467-36.1439,3.2533-67.0008,27.9469-76.852,62.6993a159.658,159.658,0,0,0-5.74,39.8C84.9628,349.2162,85.4639,385.5588,85.4638,421.8908Z" transform="translate(-85.3025 -208.2583)"/>
    <path class="cls-2" d="M85.4638,421.8908c0-36.332-.501-72.6746.2626-108.99a159.658,159.658,0,0,1,5.74-39.8c9.8512-34.7524,40.7081-59.446,76.852-62.6993,13.3911-1.2053,26.8728-1.9076,40.3158-1.9467,66.497-.1934,132.9966-.3534,199.4913.08,18.9731.1237,37.9513,2.4062,55.06,11.8775,27.7468,15.36,43.7758,38.9339,47.2519,70.4123a406.7586,406.7586,0,0,1,2.01,43.3264q.3023,98.2455-.0538,196.4918c-.0725,14.5872-1.3962,29.2653-6.6416,43.17-12.3858,32.8336-35.9247,52.6767-70.4381,58.52a247.8244,247.8244,0,0,1-40.1988,2.9516c-68.33.2816-136.663.4148-204.9909-.0374-21.5522-.1426-42.8649-3.2148-61.56-15.53-23.9741-15.7923-37.9361-38.0178-40.9876-66.5042-1.5552-14.5175-1.8771-29.2074-2.0255-43.8268C85.2555,480.2234,85.4638,451.056,85.4638,421.8908ZM298.9949,296.4584q-59.4886,0-118.9773.0069c-6.2042.0022-6.4411.2467-6.4432,6.5347-.0124,37.8261.0839,75.6528-.1136,113.4779-.0263,5.034,2.0074,6.429,6.4473,6.4126q25.7445-.0948,51.49-.0093c4.3.0137,6.2-1.4976,6.1294-6.2071-.2454-16.4933-.0969-32.9924-.0924-49.4892.0019-6.8519.0083-6.86,6.8805-6.86q86.2336-.0034,172.4674-.0034c7.6385,0,7.646-.012,7.6484-7.8409q.0075-24.4953-.0025-48.9907c-.0051-6.9372-.0876-7.0265-6.9562-7.0279Q358.2337,296.4491,298.9949,296.4584Zm.2239,250.8629c39.6591,0,79.3185-.0644,118.9771.0837,4.8075.018,6.3371-1.5568,6.3184-6.3392q-.2233-56.9884.0083-113.9777c.02-4.7165-1.8579-6.2036-6.1446-6.19q-25.7448.0821-51.49-.01c-4.4591-.0169-6.523,1.4082-6.4317,6.4317.2968,16.3248.1122,32.6584.1092,48.9887-.0013,7.1406-.0054,7.1462-7.0948,7.1465q-86.4835.0027-172.9671.0057c-6.8492.0008-6.9277.0882-6.9325,7.052q-.0173,24.7453-.001,49.4906c.0039,7.2947.0178,7.314,7.1709,7.3153Q239.98,547.3293,299.2188,547.3213Z" transform="translate(-85.3025 -208.2583)"/>
    <path class="cls-1" d="M298.9949,296.4581q59.2388-.0006,118.4775.0038c6.8686.0014,6.9511.0907,6.9562,7.0279q.0178,24.4955.0025,48.9907c-.0024,7.8289-.01,7.8405-7.6484,7.8409q-86.2338.0053-172.4674.0034c-6.8722,0-6.8786.0082-6.8805,6.86-.0045,16.4968-.153,32.9959.0924,49.4892.07,4.7095-1.83,6.2208-6.1294,6.2071q-25.7446-.082-51.49.0093c-4.44.0164-6.4736-1.3786-6.4473-6.4126.1975-37.8251.1012-75.6518.1136-113.4779.0021-6.288.239-6.5325,6.4432-6.5347Q239.5063,296.4451,298.9949,296.4581Z" transform="translate(-85.3025 -208.2583)"/>
    <path class="cls-1" d="M299.2188,547.3218q-59.2389.0009-118.4776-.0026c-7.1531-.0013-7.167-.0206-7.1709-7.3153q-.0134-24.7454.001-49.4906c.0048-6.9638.0833-7.0512,6.9325-7.052q86.4835-.0112,172.9671-.0057c7.0894,0,7.0935-.0059,7.0948-7.1465.003-16.33.1876-32.6639-.1092-48.9887-.0913-5.0235,1.9726-6.4486,6.4317-6.4317q25.7445.0981,51.49.01c4.2867-.0137,6.1648,1.4734,6.1446,6.19q-.245,56.9881-.0083,113.9777c.0187,4.7824-1.5109,6.3572-6.3184,6.3392C378.5373,547.2569,338.8779,547.3213,299.2188,547.3218Z" transform="translate(-85.3025 -208.2583)"/>
  </g>
</svg>
